<svg width="30" height="31" viewBox="0 0 30 31" fill="none" xmlns="http://www.w3.org/2000/svg">
<path fill-rule="evenodd" clip-rule="evenodd" d="M16.4558 7.18902C15.8196 6.05028 14.1805 6.05028 13.5443 7.18902L5.63077 21.354C5.01012 22.465 5.81356 23.8333 7.08651 23.8333H22.9137C24.1866 23.8333 24.99 22.465 24.3694 21.354L16.4558 7.18902ZM13.8235 12.1645C13.7836 11.4875 14.3219 10.9167 15.0001 10.9167C15.6782 10.9167 16.2165 11.4875 16.1767 12.1645L15.8823 17.1681C15.8549 17.6352 15.468 18 15.0001 18C14.5321 18 14.1453 17.6352 14.1178 17.1681L13.8235 12.1645ZM16.0417 20.2917C16.0417 20.867 15.5753 21.3333 15 21.3333C14.4248 21.3333 13.9584 20.867 13.9584 20.2917C13.9584 19.7164 14.4248 19.25 15 19.25C15.5753 19.25 16.0417 19.7164 16.0417 20.2917Z" fill="#FF3A33"/>
</svg>
