<svg width="32" height="32" viewBox="0 0 32 32" fill="none" xmlns="http://www.w3.org/2000/svg">
<path fill-rule="evenodd" clip-rule="evenodd" d="M15.9999 25.7777C21.4001 25.7777 25.7777 21.4001 25.7777 15.9999C25.7777 10.5998 21.4001 6.22217 15.9999 6.22217C10.5998 6.22217 6.22217 10.5998 6.22217 15.9999C6.22217 21.4001 10.5998 25.7777 15.9999 25.7777ZM14.8343 11.6179C14.5551 11.7886 14.3143 12.0463 14.0947 12.4109C13.8413 12.8313 13.295 12.9668 12.8745 12.7134C12.4541 12.4601 12.3186 11.9138 12.572 11.4933C12.8967 10.9544 13.3226 10.4583 13.9072 10.101C14.497 9.74055 15.1925 9.5555 15.9999 9.5555C18.13 9.5555 20 10.9464 20 13.1111C20 14.7685 18.9091 15.6237 18.1647 16.2074L18.1047 16.2545C17.2934 16.8919 16.8888 17.2581 16.8888 18C16.8888 18.4909 16.4909 18.8888 15.9999 18.8888C15.509 18.8888 15.1111 18.4909 15.1111 17.9999C15.1111 16.3425 16.2019 15.4873 16.9463 14.9036L17.0063 14.8566C17.8176 14.2191 18.2222 13.8529 18.2222 13.1111C18.2222 12.1842 17.4255 11.3333 15.9999 11.3333C15.4741 11.3333 15.1085 11.4504 14.8343 11.6179ZM17.1111 21.3333C17.1111 21.9469 16.6136 22.4444 15.9999 22.4444C15.3863 22.4444 14.8888 21.9469 14.8888 21.3333C14.8888 20.7196 15.3863 20.2222 15.9999 20.2222C16.6136 20.2222 17.1111 20.7196 17.1111 21.3333Z" fill="#FFB300"/>
</svg>
