<svg width="32" height="32" viewBox="0 0 32 32" fill="none" xmlns="http://www.w3.org/2000/svg">
<path fill-rule="evenodd" clip-rule="evenodd" d="M6.66675 10.6032C6.66675 10.0982 6.95059 9.63293 7.41372 9.43157C8.13248 9.11905 8.88164 8.84868 9.66119 8.56734C11.3668 7.9518 13.2179 7.28374 15.2144 6.00691C15.692 5.70148 16.308 5.70147 16.7856 6.0069C18.7824 7.28381 20.6336 7.95191 22.3392 8.56749C23.1187 8.84879 23.8677 9.11912 24.5864 9.43157C25.0496 9.63294 25.3334 10.0982 25.3334 10.6032V10.6682C25.3334 20.4444 18.6666 25.7778 16 25.7778C13.3334 25.7778 6.66675 20.4444 6.66675 10.6682V10.6032ZM21.1112 11.1112C21.3567 11.1112 21.5556 11.3101 21.5556 11.5556V18.2223C21.5556 18.4677 21.3567 18.6667 21.1112 18.6667H20.2223C19.9768 18.6667 19.7779 18.4677 19.7779 18.2223V11.5556C19.7779 11.3101 19.9768 11.1112 20.2223 11.1112H21.1112ZM17.1112 12.8889C16.8657 12.8889 16.6667 13.0879 16.6667 13.3334V18.2223C16.6667 18.4677 16.8657 18.6667 17.1112 18.6667H18.0001C18.2455 18.6667 18.4445 18.4677 18.4445 18.2223V13.3334C18.4445 13.0879 18.2455 12.8889 18.0001 12.8889H17.1112ZM14.889 14.6667C15.1344 14.6667 15.3334 14.8657 15.3334 15.1112V18.2223C15.3334 18.4677 15.1344 18.6667 14.889 18.6667H14.0001C13.7546 18.6667 13.5556 18.4677 13.5556 18.2223V15.1112C13.5556 14.8657 13.7546 14.6667 14.0001 14.6667H14.889ZM11.7779 16.4445C12.0233 16.4445 12.2223 16.6435 12.2223 16.8889V18.2223C12.2223 18.4677 12.0233 18.6667 11.7779 18.6667H10.889C10.6435 18.6667 10.4445 18.4677 10.4445 18.2223V16.8889C10.4445 16.6435 10.6435 16.4445 10.889 16.4445H11.7779Z" fill="black"/>
</svg>
